<?xml version="1.0" encoding="UTF-8" standalone="no"?>
<svg
   width="500pt"
   height="500pt"
   viewBox="0 0 500 500"
   preserveAspectRatio="xMidYMid"
   id="svg1"
   sodipodi:docname="LifeFlowLogo.svg"
   inkscape:version="1.3.2 (091e20e, 2023-11-25, custom)"
   xmlns:inkscape="http://www.inkscape.org/namespaces/inkscape"
   xmlns:sodipodi="http://sodipodi.sourceforge.net/DTD/sodipodi-0.dtd"
   xmlns="http://www.w3.org/2000/svg"
   xmlns:svg="http://www.w3.org/2000/svg">
  <defs
     id="defs1" />
  <sodipodi:namedview
     id="namedview1"
     pagecolor="#ffffff"
     bordercolor="#000000"
     borderopacity="0.25"
     inkscape:showpageshadow="2"
     inkscape:pageopacity="0.0"
     inkscape:pagecheckerboard="0"
     inkscape:deskcolor="#d1d1d1"
     inkscape:document-units="pt"
     inkscape:zoom="0.84281082"
     inkscape:cx="314.42406"
     inkscape:cy="329.25538"
     inkscape:window-width="1920"
     inkscape:window-height="1111"
     inkscape:window-x="-9"
     inkscape:window-y="-9"
     inkscape:window-maximized="1"
     inkscape:current-layer="svg1" />
  <g
     transform="matrix(0.16235518,0,0,-0.16235518,-107.96197,670.86581)"
     fill="#000000"
     stroke="none"
     id="g1">
    <path
       d="m 1430,4079 c -44,-18 -89,-59 -117,-106 -34,-58 -35,-130 -4,-258 72,-294 241,-546 463,-690 43,-27 78,-57 78,-65 -1,-28 -135,-500 -172,-601 -10,-29 -39,-39 -113,-39 -86,0 -262,-70 -370,-148 -113,-81 -241,-243 -285,-360 -47,-122 -60,-260 -36,-373 20,-93 51,-152 115,-222 142,-153 369,-177 561,-59 102,63 193,168 259,299 36,73 39,105 10,134 -46,46 -238,109 -292,95 -19,-4 -34,-21 -53,-58 -40,-78 -94,-146 -132,-164 -75,-35 -139,23 -127,116 9,72 49,141 124,214 92,88 191,136 283,136 114,0 215,-44 286,-125 21,-24 85,-134 141,-243 168,-327 265,-424 470,-467 437,-92 792,201 1026,847 34,96 30,117 -40,185 -63,61 -132,88 -188,72 -49,-13 -61,-32 -91,-138 -78,-277 -218,-475 -392,-558 -71,-34 -80,-35 -148,-30 -41,3 -88,13 -105,21 -46,24 -110,112 -198,270 -135,245 -177,309 -259,385 l -77,72 36,127 c 99,345 136,469 145,493 9,24 20,28 84,40 191,33 391,179 527,384 93,140 116,213 116,370 0,116 -1,122 -34,189 -53,109 -131,175 -263,221 -59,20 -157,19 -216,-3 -101,-39 -208,-140 -285,-267 -37,-63 -109,-234 -147,-347 -12,-38 -26,-68 -31,-68 -5,0 -46,36 -92,79 -130,125 -179,221 -222,436 -15,72 -33,140 -41,153 -35,54 -126,78 -194,51 z m 1181,-381 c 51,-95 -133,-418 -237,-418 -31,0 -30,9 6,105 76,197 160,335 203,335 9,0 21,-10 28,-22 z"
       id="path1" />
  </g>
</svg>
