<svg width="24" height="24" viewBox="0 0 24 24" fill="none" xmlns="http://www.w3.org/2000/svg">
<path fill-rule="evenodd" clip-rule="evenodd" d="M8.625 3C5.5184 3 3 5.5184 3 8.625V15.375C3 18.4816 5.5184 21 8.625 21H15.375C18.4816 21 21 18.4816 21 15.375V8.625C21 5.5184 18.4816 3 15.375 3H8.625ZM5.8125 8.0625C5.91114 12.9789 8.44829 15.9375 12.6289 15.9375H12.8715V13.1249C14.3933 13.2822 15.5295 14.4412 15.993 15.9375H18.1875C17.592 13.6991 16.0479 12.4615 15.0882 11.9887C16.0479 11.4039 17.4043 9.98624 17.724 8.0625H15.7282C15.3085 9.62615 14.0625 11.0438 12.8715 11.1785V8.0625H10.8416V13.519C9.60673 13.2066 7.99589 11.674 7.92988 8.0625H5.8125Z" fill="#0077FF"/>
</svg>
